STARTFONT 2.1
FONT -Adobe-ITC Avant Garde Gothic-Book-R-Normal--33-240-100-100-P-183-ISO8859-1
SIZE 24 100 100
FONTBOUNDINGBOX 41 34 -4 -7

STARTPROPERTIES 26
_DEC_DEVICE_FONTNAMES "PS=AvantGarde-Book"
FONTNAME_REGISTRY ""
FAMILY_NAME "ITC Avant Garde Gothic"
FOUNDRY "Adobe"
WEIGHT_NAME "Book"
SLANT "R"
SETWIDTH_NAME "Normal"
ADD_STYLE_NAME ""
PIXEL_SIZE 33
POINT_SIZE 240
RESOLUTION_X 100
RESOLUTION_Y 100
SPACING "P"
AVERAGE_WIDTH 183
CHARSET_REGISTRY "ISO8859"
CHARSET_ENCODING "1"
CHARSET_COLLECTIONS "ASCII ISO8859-1 ADOBE-STANDARD"
FULL_NAME "ITC Avant Garde Gothic Book"
COPYRIGHT "Copyright (c) 1991 Adobe Systems, Inc."
CAP_HEIGHT 25
X_HEIGHT 19
WEIGHT 10
QUAD_WIDTH 22
DEFAULT_CHAR 0
FONT_DESCENT 7
FONT_ASCENT 27
ENDPROPERTIES

CHARS 190

STARTCHAR space
ENCODING 32
SWIDTH 277 0
DWIDTH 9 0
BBX 1 1 0 0
BITMAP
00
ENDCHAR

STARTCHAR exclam
ENCODING 33
SWIDTH 295 0
DWIDTH 10 0
BBX 2 25 4 0
BITMAP
C0
C0
C0
C0
C0
C0
C0
C0
C0
C0
C0
C0
C0
C0
C0
C0
C0
C0
00
00
00
C0
C0
C0
C0
ENDCHAR

STARTCHAR quotedbl
ENCODING 34
SWIDTH 309 0
DWIDTH 10 0
BBX 6 8 2 17
BITMAP
CC
CC
CC
CC
CC
CC
CC
CC
ENDCHAR

STARTCHAR numbersign
ENCODING 35
SWIDTH 554 0
DWIDTH 18 0
BBX 17 24 0 0
BITMAP
004600
004400
00C400
00CC00
008800
018800
019800
011800
3FFF80
3FFF80
033000
022000
062000
066000
FFFE00
FFFE00
0C4000
0CC000
08C000
188000
198000
118000
110000
310000
ENDCHAR

STARTCHAR dollar
ENCODING 36
SWIDTH 554 0
DWIDTH 18 0
BBX 13 29 2 -2
BITMAP
0300
0300
0300
0FC0
1FE0
3C70
7030
7038
6018
6000
7000
7000
3E00
1F80
07E0
00F0
0030
0038
0018
C018
E018
E038
7038
78F0
3FE0
0FC0
0300
0300
0300
ENDCHAR

STARTCHAR percent
ENCODING 37
SWIDTH 775 0
DWIDTH 25 0
BBX 23 25 1 0
BITMAP
1F0180
7F8180
738380
E1C300
C0C700
C0C700
C0C600
E1CE00
738C00
7F9C00
3F1800
003800
003000
003000
0071F0
0067FC
00E71C
00CE0E
01CC06
018C06
018C06
030E0E
03071C
0707FC
0601F0
ENDCHAR

STARTCHAR ampersand
ENCODING 38
SWIDTH 757 0
DWIDTH 25 0
BBX 21 25 2 0
BITMAP
03E000
0FF800
1E3800
1C1C00
180C00
180C00
181C00
1C1C00
0E7800
0FF070
07E0E0
1FC0E0
3FE0C0
78F1C0
707980
E03F80
E01F00
C00F00
C00F80
E00FC0
E01DE0
703CF0
3CF878
1FF038
0FC018
ENDCHAR

STARTCHAR quoteright
ENCODING 39
SWIDTH 351 0
DWIDTH 12 0
BBX 5 6 3 19
BITMAP
38
30
70
70
60
E0
ENDCHAR

STARTCHAR parenleft
ENCODING 40
SWIDTH 369 0
DWIDTH 12 0
BBX 9 29 2 -4
BITMAP
0180
0380
0700
0E00
1C00
3800
3800
7000
7000
6000
E000
E000
C000
C000
C000
C000
C000
E000
E000
E000
7000
7000
3800
3800
1C00
0E00
0700
0380
0180
ENDCHAR

STARTCHAR parenright
ENCODING 41
SWIDTH 369 0
DWIDTH 12 0
BBX 9 29 1 -4
BITMAP
C000
E000
7000
3800
1C00
0E00
0E00
0700
0700
0380
0380
0380
0380
0180
0180
0180
0180
0380
0380
0380
0700
0700
0E00
0E00
1C00
3800
7000
E000
C000
ENDCHAR

STARTCHAR asterisk
ENCODING 42
SWIDTH 425 0
DWIDTH 14 0
BBX 9 9 2 16
BITMAP
2200
3600
3600
1C00
FF80
FF80
3E00
3600
2200
ENDCHAR

STARTCHAR plus
ENCODING 43
SWIDTH 606 0
DWIDTH 20 0
BBX 16 17 2 2
BITMAP
0180
0180
0180
0180
0180
0180
0180
FFFF
FFFF
FFFF
0180
0180
0180
0180
0180
0180
0180
ENDCHAR

STARTCHAR comma
ENCODING 44
SWIDTH 277 0
DWIDTH 9 0
BBX 5 6 3 -2
BITMAP
38
38
30
70
60
E0
ENDCHAR

STARTCHAR minus
ENCODING 45
SWIDTH 606 0
DWIDTH 20 0
BBX 16 3 2 9
BITMAP
FFFF
FFFF
FFFF
ENDCHAR

STARTCHAR period
ENCODING 46
SWIDTH 277 0
DWIDTH 9 0
BBX 2 4 3 0
BITMAP
C0
C0
C0
C0
ENDCHAR

STARTCHAR slash
ENCODING 47
SWIDTH 437 0
DWIDTH 15 0
BBX 12 29 1 -4
BITMAP
0030
0070
0060
0060
00E0
00C0
01C0
01C0
0180
0380
0380
0300
0700
0700
0600
0E00
0E00
0C00
1C00
1C00
1800
3800
3000
3000
7000
6000
6000
E000
C000
ENDCHAR

STARTCHAR zero
ENCODING 48
SWIDTH 554 0
DWIDTH 18 0
BBX 16 25 1 0
BITMAP
0FF0
1FF8
3E7C
781E
700E
E007
E007
C003
C003
C003
C003
C003
C003
C003
C003
C003
C003
C003
E007
E007
6006
700E
3E7C
1FF8
0FF0
ENDCHAR

STARTCHAR one
ENCODING 49
SWIDTH 554 0
DWIDTH 18 0
BBX 6 25 5 0
BITMAP
FC
FC
0C
0C
0C
0C
0C
0C
0C
0C
0C
0C
0C
0C
0C
0C
0C
0C
0C
0C
0C
0C
0C
0C
0C
ENDCHAR

STARTCHAR two
ENCODING 50
SWIDTH 554 0
DWIDTH 18 0
BBX 15 25 1 0
BITMAP
0FE0
1FF0
3E78
701C
E00E
E00E
C006
C006
000E
000E
000E
001C
0038
0078
00F0
01E0
03C0
0780
0F00
1E00
3C00
7800
E000
FFFE
FFFE
ENDCHAR

STARTCHAR three
ENCODING 51
SWIDTH 554 0
DWIDTH 18 0
BBX 15 25 1 0
BITMAP
07E0
0FF0
1E78
3838
3818
301C
001C
0018
0038
0078
03F0
03F0
0078
001C
000E
000E
0006
E006
E006
600E
700E
781C
3E78
1FF0
0FE0
ENDCHAR

STARTCHAR four
ENCODING 52
SWIDTH 554 0
DWIDTH 18 0
BBX 16 25 0 0
BITMAP
001C
003C
003C
007C
00EC
00EC
01CC
038C
038C
070C
070C
0E0C
1C0C
1C0C
380C
700C
700C
E00C
FFFF
FFFF
000C
000C
000C
000C
000C
ENDCHAR

STARTCHAR five
ENCODING 53
SWIDTH 554 0
DWIDTH 18 0
BBX 16 25 1 0
BITMAP
1FFC
1FFC
1C00
1800
1800
1800
3800
3800
37F0
3FF8
3E7C
381E
300E
0007
0007
0003
0003
E003
E007
6007
700E
381E
3E7C
0FF8
07F0
ENDCHAR

STARTCHAR six
ENCODING 54
SWIDTH 554 0
DWIDTH 18 0
BBX 16 25 1 0
BITMAP
00E0
01C0
01C0
0380
0700
0700
0E00
0E00
1FF0
3FF8
3E7C
781E
700E
E007
E007
C003
C003
C003
E007
E007
700E
781E
3E7C
1FF8
07E0
ENDCHAR

STARTCHAR seven
ENCODING 55
SWIDTH 554 0
DWIDTH 18 0
BBX 13 25 2 0
BITMAP
FFF8
FFF8
0018
0038
0030
0070
0070
00E0
00E0
00C0
01C0
0180
0380
0380
0300
0700
0600
0E00
0E00
1C00
1C00
1800
3800
3800
3000
ENDCHAR

STARTCHAR eight
ENCODING 56
SWIDTH 554 0
DWIDTH 18 0
BBX 14 25 2 0
BITMAP
0FC0
1FE0
3CF0
7030
7038
6018
6018
7038
3030
3CF0
1FE0
1FE0
3CF0
7038
E01C
E01C
C00C
C00C
C00C
E01C
E01C
7038
3CF0
1FE0
0FC0
ENDCHAR

STARTCHAR nine
ENCODING 57
SWIDTH 554 0
DWIDTH 18 0
BBX 16 25 1 0
BITMAP
07E0
1FF8
3E7C
781E
700E
E007
E007
C003
C003
C003
E007
E007
700E
781E
3E7C
1FFC
0FF8
0030
0070
00E0
00E0
01C0
0380
0380
0700
ENDCHAR

STARTCHAR colon
ENCODING 58
SWIDTH 277 0
DWIDTH 9 0
BBX 2 17 3 0
BITMAP
C0
C0
C0
C0
00
00
00
00
00
00
00
00
00
C0
C0
C0
C0
ENDCHAR

STARTCHAR semicolon
ENCODING 59
SWIDTH 277 0
DWIDTH 9 0
BBX 5 19 1 -2
BITMAP
18
18
18
18
00
00
00
00
00
00
00
00
00
38
38
30
70
60
E0
ENDCHAR

STARTCHAR less
ENCODING 60
SWIDTH 606 0
DWIDTH 20 0
BBX 16 18 2 1
BITMAP
0001
0007
001F
007C
01F0
07C0
1F00
7C00
F000
F000
7C00
1F00
07C0
01F0
007C
001F
0007
0001
ENDCHAR

STARTCHAR equal
ENCODING 61
SWIDTH 606 0
DWIDTH 20 0
BBX 16 8 2 6
BITMAP
FFFF
FFFF
0000
0000
0000
0000
FFFF
FFFF
ENDCHAR

STARTCHAR greater
ENCODING 62
SWIDTH 606 0
DWIDTH 20 0
BBX 16 18 2 1
BITMAP
8000
E000
F800
3E00
0F80
03E0
00F8
003E
000F
000F
003E
00F8
03E0
0F80
3E00
F800
E000
8000
ENDCHAR

STARTCHAR question
ENCODING 63
SWIDTH 591 0
DWIDTH 19 0
BBX 15 25 2 0
BITMAP
0FE0
1FF8
3E7C
781C
F00E
E00E
E006
C006
0006
000E
001C
003C
0078
00F0
00E0
01C0
01C0
0180
0180
0000
0000
0180
0180
0180
0180
ENDCHAR

STARTCHAR at
ENCODING 64
SWIDTH 867 0
DWIDTH 29 0
BBX 24 25 2 0
BITMAP
007E00
01FFC0
0780F0
0E0038
1C000C
383E0E
307F66
60E3E2
61C1C3
C381C3
C381C3
C70183
C70183
C70386
C60306
470704
670F0C
679F18
33FFF0
31F3E6
18000C
0E0038
0780F0
01FFC0
007E00
ENDCHAR

STARTCHAR A
ENCODING 65
SWIDTH 740 0
DWIDTH 24 0
BBX 21 25 1 0
BITMAP
007000
007000
00F800
00D800
01DC00
01DC00
018C00
038E00
038E00
070700
070700
060300
0E0380
0E0380
1C01C0
1FFFC0
1FFFC0
3800E0
3800E0
700070
700070
600030
E00038
E00038
C00018
ENDCHAR

STARTCHAR B
ENCODING 66
SWIDTH 574 0
DWIDTH 19 0
BBX 14 25 3 0
BITMAP
FF80
FFE0
C1F0
C070
C038
C018
C018
C018
C038
C070
C1F0
FFE0
FFF0
C0F8
C038
C01C
C00C
C00C
C00C
C01C
C01C
C038
C0F8
FFF0
FFC0
ENDCHAR

STARTCHAR C
ENCODING 67
SWIDTH 813 0
DWIDTH 26 0
BBX 22 25 2 0
BITMAP
00FF00
03FFC0
0FC3F0
1F0078
3C001C
38001C
700000
700000
E00000
E00000
C00000
C00000
C00000
C00000
C00000
E00000
E00000
700000
700000
38001C
3C001C
1F0078
0FC3F0
03FFC0
00FF00
ENDCHAR

STARTCHAR D
ENCODING 68
SWIDTH 744 0
DWIDTH 24 0
BBX 19 25 3 0
BITMAP
FFE000
FFF800
C07E00
C00F00
C00780
C00380
C001C0
C000C0
C000E0
C000E0
C00060
C00060
C00060
C00060
C00060
C000E0
C000E0
C000C0
C001C0
C00380
C00780
C00F00
C07E00
FFF800
FFE000
ENDCHAR

STARTCHAR E
ENCODING 69
SWIDTH 536 0
DWIDTH 17 0
BBX 12 25 3 0
BITMAP
FFF0
FFF0
C000
C000
C000
C000
C000
C000
C000
C000
C000
C000
FFF0
FFF0
C000
C000
C000
C000
C000
C000
C000
C000
C000
FFF0
FFF0
ENDCHAR

STARTCHAR F
ENCODING 70
SWIDTH 485 0
DWIDTH 16 0
BBX 11 25 3 0
BITMAP
FFE0
FFE0
C000
C000
C000
C000
C000
C000
C000
C000
C000
C000
FFE0
FFE0
C000
C000
C000
C000
C000
C000
C000
C000
C000
C000
C000
ENDCHAR

STARTCHAR G
ENCODING 71
SWIDTH 872 0
DWIDTH 28 0
BBX 24 25 2 0
BITMAP
00FF00
03FFC0
07E3F0
1F0078
1C003C
38001C
70000C
700000
600000
E00000
E00000
C00000
C00000
C00000
C07FFF
E07FFF
E00007
600006
70000E
38001C
3C003C
1E0078
0FC3F0
03FFC0
00FF00
ENDCHAR

STARTCHAR H
ENCODING 72
SWIDTH 683 0
DWIDTH 22 0
BBX 16 25 3 0
BITMAP
C003
C003
C003
C003
C003
C003
C003
C003
C003
C003
C003
FFFF
FFFF
C003
C003
C003
C003
C003
C003
C003
C003
C003
C003
C003
C003
ENDCHAR

STARTCHAR I
ENCODING 73
SWIDTH 226 0
DWIDTH 7 0
BBX 2 25 3 0
BITMAP
C0
C0
C0
C0
C0
C0
C0
C0
C0
C0
C0
C0
C0
C0
C0
C0
C0
C0
C0
C0
C0
C0
C0
C0
C0
ENDCHAR

STARTCHAR J
ENCODING 74
SWIDTH 482 0
DWIDTH 16 0
BBX 12 25 1 0
BITMAP
0030
0030
0030
0030
0030
0030
0030
0030
0030
0030
0030
0030
0030
0030
0030
0030
0030
0030
0030
C030
C070
E070
79E0
7FC0
1F80
ENDCHAR

STARTCHAR K
ENCODING 75
SWIDTH 591 0
DWIDTH 19 0
BBX 15 25 3 0
BITMAP
C00E
C00E
C01C
C038
C078
C070
C0E0
C1C0
C3C0
C380
C700
CE00
DE00
DF00
FF80
F380
F1C0
E1E0
C0E0
C070
C038
C03C
C01C
C00E
C00E
ENDCHAR

STARTCHAR L
ENCODING 76
SWIDTH 462 0
DWIDTH 15 0
BBX 11 25 3 0
BITMAP
C000
C000
C000
C000
C000
C000
C000
C000
C000
C000
C000
C000
C000
C000
C000
C000
C000
C000
C000
C000
C000
C000
C000
FFE0
FFE0
ENDCHAR

STARTCHAR M
ENCODING 77
SWIDTH 919 0
DWIDTH 30 0
BBX 24 25 3 0
BITMAP
F0000F
F0000F
F8001F
F8001F
D8001B
DC003B
CC0033
CE0073
CE0073
C60063
C700E3
C300C3
C381C3
C381C3
C18183
C1C383
C0C303
C0E703
C0E703
C06603
C07E03
C07E03
C03C03
C03C03
C01803
ENDCHAR

STARTCHAR N
ENCODING 78
SWIDTH 740 0
DWIDTH 24 0
BBX 18 25 3 0
BITMAP
E000C0
F000C0
F800C0
F800C0
DC00C0
CE00C0
CE00C0
C700C0
C700C0
C380C0
C1C0C0
C1C0C0
C0E0C0
C060C0
C070C0
C038C0
C038C0
C01CC0
C00EC0
C00EC0
C007C0
C007C0
C003C0
C001C0
C001C0
ENDCHAR

STARTCHAR O
ENCODING 79
SWIDTH 869 0
DWIDTH 28 0
BBX 24 25 2 0
BITMAP
00FF00
03FFC0
0FC3E0
1F00F8
1C0038
38001C
70000E
70000E
E00007
E00007
C00003
C00003
C00003
C00003
C00003
E00007
E00007
70000E
70000E
38001C
1C0038
1F0078
0FC3F0
03FFC0
00FF00
ENDCHAR

STARTCHAR P
ENCODING 80
SWIDTH 592 0
DWIDTH 19 0
BBX 15 25 3 0
BITMAP
FFE0
FFF8
C07C
C01C
C00E
C00E
C006
C006
C006
C00E
C00E
C01C
C07C
FFF8
FFE0
C000
C000
C000
C000
C000
C000
C000
C000
C000
C000
ENDCHAR

STARTCHAR Q
ENCODING 81
SWIDTH 871 0
DWIDTH 28 0
BBX 25 25 2 0
BITMAP
00FF8000
03FFE000
07C1F000
1F007C00
1C001C00
38000E00
70000700
70000700
E0000380
E0000380
E0000380
C0000180
C0000180
C0000180
C0000180
FFF00380
FFFE0380
783F0700
7007C700
3801EE00
3C00FE00
1F007C00
07C1FE00
03FFEF80
00FF8780
ENDCHAR

STARTCHAR R
ENCODING 82
SWIDTH 607 0
DWIDTH 20 0
BBX 15 25 3 0
BITMAP
FFE0
FFF0
C078
C01C
C01C
C00E
C00E
C006
C006
C006
C00E
C00E
C01C
C078
C7F0
C7E0
C380
C1C0
C1C0
C0E0
C070
C070
C038
C01C
C01C
ENDCHAR

STARTCHAR S
ENCODING 83
SWIDTH 498 0
DWIDTH 16 0
BBX 14 25 1 0
BITMAP
0FC0
1FF0
3CF0
7038
7018
601C
601C
6000
7000
3800
3E00
1FC0
07F0
00F8
0038
001C
001C
000C
E00C
E01C
701C
7038
3CF8
1FF0
0FC0
ENDCHAR

STARTCHAR T
ENCODING 84
SWIDTH 426 0
DWIDTH 14 0
BBX 13 25 0 0
BITMAP
FFF8
FFF8
0300
0300
0300
0300
0300
0300
0300
0300
0300
0300
0300
0300
0300
0300
0300
0300
0300
0300
0300
0300
0300
0300
0300
ENDCHAR

STARTCHAR U
ENCODING 85
SWIDTH 655 0
DWIDTH 21 0
BBX 15 25 3 0
BITMAP
C006
C006
C006
C006
C006
C006
C006
C006
C006
C006
C006
C006
C006
C006
C006
C006
C006
C006
C006
E00E
600C
701C
3C78
1FF0
0FE0
ENDCHAR

STARTCHAR V
ENCODING 86
SWIDTH 702 0
DWIDTH 23 0
BBX 22 25 0 0
BITMAP
E0001C
600018
700038
300030
380070
380070
180060
1C00E0
1C00E0
0C00C0
0E01C0
060180
070380
070380
030300
038700
038700
018600
01CE00
00CC00
00FC00
00FC00
007800
007800
003000
ENDCHAR

STARTCHAR W
ENCODING 87
SWIDTH 960 0
DWIDTH 31 0
BBX 29 25 1 0
BITMAP
C0060038
E00F0038
E00F0038
600F0030
600F0070
701F8070
701F8060
301980E0
301980E0
3839C0E0
3839C0C0
1830C1C0
1830C1C0
1C70E180
1C70E180
0C606380
0C606380
0CE07300
0EE07700
06C03700
06C03700
06C03E00
07C03E00
03801E00
03801C00
ENDCHAR

STARTCHAR X
ENCODING 88
SWIDTH 609 0
DWIDTH 20 0
BBX 18 25 1 0
BITMAP
600180
700380
300700
380700
1C0E00
1C1C00
0E1C00
0E3800
077000
037000
03E000
01E000
01C000
03E000
03F000
077000
063800
0E3C00
1C1C00
1C0E00
380E00
380700
700380
600380
E001C0
ENDCHAR

STARTCHAR Y
ENCODING 89
SWIDTH 592 0
DWIDTH 19 0
BBX 17 25 1 0
BITMAP
C00180
E00380
E00380
600700
700700
300E00
380E00
181C00
1C1C00
0C3800
0E3000
0E7000
066000
07E000
03C000
03C000
018000
018000
018000
018000
018000
018000
018000
018000
018000
ENDCHAR

STARTCHAR Z
ENCODING 90
SWIDTH 480 0
DWIDTH 16 0
BBX 15 25 0 0
BITMAP
FFFE
FFFE
000E
001C
001C
0038
0030
0070
00E0
00E0
01C0
01C0
0380
0700
0700
0E00
0E00
1C00
1C00
3800
7000
7000
E000
FFFE
FFFE
ENDCHAR

STARTCHAR bracketleft
ENCODING 91
SWIDTH 351 0
DWIDTH 12 0
BBX 6 27 4 -3
BITMAP
0C
1C
38
70
E0
E0
C0
C0
C0
C0
C0
C0
C0
C0
C0
C0
C0
C0
C0
C0
C0
E0
E0
70
38
3C
0C
ENDCHAR

STARTCHAR backslash
ENCODING 92
SWIDTH 605 0
DWIDTH 20 0
BBX 12 25 3 0
BITMAP
E000
E000
6000
7000
3000
3000
3800
1800
1C00
0C00
0C00
0E00
0600
0700
0300
0300
0380
0180
01C0
00C0
00C0
00E0
0060
0070
0030
ENDCHAR

STARTCHAR bracketright
ENCODING 93
SWIDTH 351 0
DWIDTH 12 0
BBX 6 27 1 -3
BITMAP
C0
F0
70
38
1C
1C
0C
0C
0C
0C
0C
0C
0C
0C
0C
0C
0C
0C
0C
0C
0C
1C
1C
38
70
F0
C0
ENDCHAR

STARTCHAR asciicircum
ENCODING 94
SWIDTH 606 0
DWIDTH 20 0
BBX 18 19 1 6
BITMAP
00C000
01E000
01E000
03E000
033000
033000
061800
061800
0E1C00
0C0C00
1C0E00
180600
180600
300300
300300
600380
600180
E001C0
C000C0
ENDCHAR

STARTCHAR underscore
ENCODING 95
SWIDTH 500 0
DWIDTH 16 0
BBX 16 2 0 -4
BITMAP
FFFF
FFFF
ENDCHAR

STARTCHAR quoteleft
ENCODING 96
SWIDTH 351 0
DWIDTH 12 0
BBX 5 6 3 19
BITMAP
E0
60
70
70
30
38
ENDCHAR

STARTCHAR a
ENCODING 97
SWIDTH 683 0
DWIDTH 22 0
BBX 18 19 2 0
BITMAP
03F0C0
0FFCC0
1E1EC0
3807C0
7003C0
7001C0
E001C0
E001C0
C000C0
C000C0
C000C0
E001C0
E001C0
F001C0
7003C0
7807C0
1E1EC0
0FFCC0
03F0C0
ENDCHAR

STARTCHAR b
ENCODING 98
SWIDTH 682 0
DWIDTH 22 0
BBX 18 25 2 0
BITMAP
C00000
C00000
C00000
C00000
C00000
C00000
C7F000
CFFC00
DF3E00
F80F00
F00380
E00380
E001C0
C001C0
C000C0
C000C0
C000C0
C001C0
E001C0
E00180
F00380
F80700
DE1E00
CFFC00
C3F000
ENDCHAR

STARTCHAR c
ENCODING 99
SWIDTH 647 0
DWIDTH 21 0
BBX 17 19 2 0
BITMAP
03F800
0FFE00
1F1F00
3C0780
700380
700180
E00000
E00000
C00000
C00000
C00000
E00000
E00000
700180
700380
3C0780
1F1F00
0FFE00
03F800
ENDCHAR

STARTCHAR d
ENCODING 100
SWIDTH 685 0
DWIDTH 22 0
BBX 18 25 2 0
BITMAP
0000C0
0000C0
0000C0
0000C0
0000C0
0000C0
07F8C0
0FFCC0
1F3EC0
3C0FC0
7003C0
7003C0
E001C0
E001C0
C000C0
C000C0
C000C0
E001C0
E001C0
E001C0
7003C0
3807C0
1E1EC0
0FFCC0
03F0C0
ENDCHAR

STARTCHAR e
ENCODING 101
SWIDTH 650 0
DWIDTH 21 0
BBX 17 19 2 0
BITMAP
07F000
0FF800
1F7C00
380E00
700700
700700
E00380
E00380
C00180
FFFF80
FFFF80
C00000
E00000
E00300
700700
780F00
3E3E00
1FFC00
07F000
ENDCHAR

STARTCHAR f
ENCODING 102
SWIDTH 314 0
DWIDTH 10 0
BBX 10 25 0 0
BITMAP
03C0
0FC0
0E00
1C00
1800
1800
FFC0
FFC0
1800
1800
1800
1800
1800
1800
1800
1800
1800
1800
1800
1800
1800
1800
1800
1800
1800
ENDCHAR

STARTCHAR g
ENCODING 103
SWIDTH 673 0
DWIDTH 22 0
BBX 17 26 2 -7
BITMAP
07E180
0FF980
3E3D80
780F80
700780
E00380
E00380
C00380
C00180
C00180
C00180
E00380
E00380
E00380
700780
380F80
3F7D80
1FF980
07F180
600380
700380
700700
380F00
1F3E00
0FFC00
07F000
ENDCHAR

STARTCHAR h
ENCODING 104
SWIDTH 610 0
DWIDTH 20 0
BBX 15 25 2 0
BITMAP
C000
C000
C000
C000
C000
C000
CFE0
DFF0
FEF8
F01C
E00C
E00E
C00E
C006
C006
C006
C006
C006
C006
C006
C006
C006
C006
C006
C006
ENDCHAR

STARTCHAR i
ENCODING 105
SWIDTH 200 0
DWIDTH 7 0
BBX 2 25 2 0
BITMAP
C0
C0
C0
C0
00
00
C0
C0
C0
C0
C0
C0
C0
C0
C0
C0
C0
C0
C0
C0
C0
C0
C0
C0
C0
ENDCHAR

STARTCHAR j
ENCODING 106
SWIDTH 203 0
DWIDTH 7 0
BBX 6 31 -2 -6
BITMAP
0C
0C
0C
0C
00
00
0C
0C
0C
0C
0C
0C
0C
0C
0C
0C
0C
0C
0C
0C
0C
0C
0C
0C
0C
0C
1C
1C
78
F0
E0
ENDCHAR

STARTCHAR k
ENCODING 107
SWIDTH 502 0
DWIDTH 16 0
BBX 13 25 2 0
BITMAP
C000
C000
C000
C000
C000
C000
C038
C070
C0E0
C0E0
C1C0
C380
C780
C700
CE00
DE00
DE00
FF00
F380
F3C0
E1C0
C0E0
C070
C078
C038
ENDCHAR

STARTCHAR l
ENCODING 108
SWIDTH 200 0
DWIDTH 7 0
BBX 2 25 2 0
BITMAP
C0
C0
C0
C0
C0
C0
C0
C0
C0
C0
C0
C0
C0
C0
C0
C0
C0
C0
C0
C0
C0
C0
C0
C0
C0
ENDCHAR

STARTCHAR m
ENCODING 109
SWIDTH 938 0
DWIDTH 30 0
BBX 26 19 2 0
BITMAP
CFC0FC00
DFF3FE00
F8FF8F80
F03F0380
E01E01C0
E01E01C0
C00C00C0
C00C00C0
C00C00C0
C00C00C0
C00C00C0
C00C00C0
C00C00C0
C00C00C0
C00C00C0
C00C00C0
C00C00C0
C00C00C0
C00C00C0
ENDCHAR

STARTCHAR n
ENCODING 110
SWIDTH 610 0
DWIDTH 20 0
BBX 15 19 2 0
BITMAP
C7C0
DFF0
FC78
F01C
E00C
E00E
C00E
C006
C006
C006
C006
C006
C006
C006
C006
C006
C006
C006
C006
ENDCHAR

STARTCHAR o
ENCODING 111
SWIDTH 655 0
DWIDTH 21 0
BBX 17 19 2 0
BITMAP
07F000
0FF800
3F7E00
380E00
700700
600300
E00380
E00380
C00180
C00180
C00180
E00380
E00380
E00300
700700
380E00
3F7E00
0FF800
07F000
ENDCHAR

STARTCHAR p
ENCODING 112
SWIDTH 682 0
DWIDTH 22 0
BBX 18 25 2 -6
BITMAP
C3F000
CFFC00
DE1E00
F80700
F00380
E001C0
E001C0
C001C0
C000C0
C000C0
C000C0
C001C0
E001C0
E00380
F00380
F80F00
DF3E00
CFFC00
C7F000
C00000
C00000
C00000
C00000
C00000
C00000
ENDCHAR

STARTCHAR q
ENCODING 113
SWIDTH 682 0
DWIDTH 22 0
BBX 18 25 2 -6
BITMAP
03F0C0
0FFCC0
1E1EC0
3807C0
7003C0
E001C0
E001C0
E000C0
C000C0
C000C0
C000C0
E000C0
E001C0
7001C0
7003C0
3C07C0
1F3EC0
0FFCC0
03F8C0
0000C0
0000C0
0000C0
0000C0
0000C0
0000C0
ENDCHAR

STARTCHAR r
ENCODING 114
SWIDTH 301 0
DWIDTH 10 0
BBX 7 19 2 0
BITMAP
CE
DE
FC
F0
E0
E0
C0
C0
C0
C0
C0
C0
C0
C0
C0
C0
C0
C0
C0
ENDCHAR

STARTCHAR s
ENCODING 115
SWIDTH 388 0
DWIDTH 13 0
BBX 11 19 0 0
BITMAP
1F00
3FC0
79C0
70E0
60E0
6000
7000
7C00
3F00
0FC0
03C0
00E0
00E0
E060
E060
E0E0
79C0
3FC0
1F00
ENDCHAR

STARTCHAR t
ENCODING 116
SWIDTH 339 0
DWIDTH 11 0
BBX 10 25 0 0
BITMAP
0C00
0C00
0C00
0C00
0C00
0C00
FFC0
FFC0
0C00
0C00
0C00
0C00
0C00
0C00
0C00
0C00
0C00
0C00
0C00
0C00
0C00
0C00
0C00
0C00
0C00
ENDCHAR

STARTCHAR u
ENCODING 117
SWIDTH 608 0
DWIDTH 20 0
BBX 15 19 2 0
BITMAP
C006
C006
C006
C006
C006
C006
C006
C006
C006
C006
C006
C006
C00E
E00E
E00E
701E
7C7E
3FF6
0FC6
ENDCHAR

STARTCHAR v
ENCODING 118
SWIDTH 554 0
DWIDTH 18 0
BBX 18 19 0 0
BITMAP
E001C0
700380
700380
300300
380700
380700
180600
1C0E00
1C0E00
0E1C00
0E1C00
061800
073800
073800
03F000
03F000
01E000
01E000
01E000
ENDCHAR

STARTCHAR w
ENCODING 119
SWIDTH 831 0
DWIDTH 27 0
BBX 26 19 0 0
BITMAP
E00001C0
E00001C0
700C0180
700E0380
701E0380
381E0300
381F0700
181F0700
1C330600
1C330E00
0E338E00
0E318C00
0E619C00
0761DC00
0760D800
0360F800
03C0F800
03C0F000
01C07000
ENDCHAR

STARTCHAR x
ENCODING 120
SWIDTH 480 0
DWIDTH 16 0
BBX 13 19 1 0
BITMAP
C018
E038
7070
7070
38E0
1CC0
1DC0
0F80
0F80
0700
0F80
0F80
1DC0
38E0
38E0
7070
7070
E038
C018
ENDCHAR

STARTCHAR y
ENCODING 121
SWIDTH 536 0
DWIDTH 17 0
BBX 16 25 0 -6
BITMAP
E003
6007
7007
7006
300E
380E
381C
181C
1C18
0C38
0E30
0E70
0670
07E0
07E0
03C0
03C0
03C0
0380
0380
0300
0700
0600
0E00
0E00
ENDCHAR

STARTCHAR z
ENCODING 122
SWIDTH 425 0
DWIDTH 14 0
BBX 14 19 0 0
BITMAP
FFF8
FFF8
0038
0070
00E0
00E0
01C0
0380
0380
0700
0E00
0E00
1C00
3800
3800
7000
E000
FFFC
FFFC
ENDCHAR

STARTCHAR braceleft
ENCODING 123
SWIDTH 351 0
DWIDTH 12 0
BBX 7 31 1 -5
BITMAP
02
0E
1C
18
18
18
18
18
18
18
18
18
18
18
30
E0
30
18
18
18
18
18
18
18
18
18
18
18
1C
0E
06
ENDCHAR

STARTCHAR bar
ENCODING 124
SWIDTH 672 0
DWIDTH 22 0
BBX 2 25 10 0
BITMAP
C0
C0
C0
C0
C0
C0
C0
C0
C0
C0
C0
C0
C0
C0
C0
C0
C0
C0
C0
C0
C0
C0
C0
C0
C0
ENDCHAR

STARTCHAR braceright
ENCODING 125
SWIDTH 351 0
DWIDTH 12 0
BBX 7 31 2 -5
BITMAP
C0
E0
70
30
30
30
30
30
30
30
30
30
30
30
18
0E
18
30
30
30
30
30
30
30
30
30
30
30
70
E0
40
ENDCHAR

STARTCHAR asciitilde
ENCODING 126
SWIDTH 606 0
DWIDTH 20 0
BBX 16 5 2 8
BITMAP
0800
3F03
7FEE
E3FE
C07C
ENDCHAR

STARTCHAR exclamdown
ENCODING 161
SWIDTH 295 0
DWIDTH 10 0
BBX 2 25 4 -6
BITMAP
C0
C0
C0
C0
00
00
00
C0
C0
C0
C0
C0
C0
C0
C0
C0
C0
C0
C0
C0
C0
C0
C0
C0
C0
ENDCHAR

STARTCHAR cent
ENCODING 162
SWIDTH 554 0
DWIDTH 18 0
BBX 13 21 2 2
BITMAP
0300
0300
0300
0FC0
3FF0
7CF8
7038
E018
C000
C000
C000
C000
E000
E000
7038
7CF8
3FF0
0FC0
0300
0300
0300
ENDCHAR

STARTCHAR sterling
ENCODING 163
SWIDTH 554 0
DWIDTH 18 0
BBX 19 25 0 0
BITMAP
01F800
07FE00
0F8F00
1E0380
1C0380
3801C0
3800C0
300000
300000
380000
380000
FFFE00
FFFE00
070000
038000
038000
01C060
01C060
00C060
00C0E0
01C0E0
01C1C0
0387C0
7FFF80
7FFE00
ENDCHAR

STARTCHAR currency
ENCODING 164
SWIDTH 554 0
DWIDTH 18 0
BBX 16 17 1 2
BITMAP
47E2
FFFF
7E7E
781E
700E
E007
E007
C003
C003
C003
E007
E007
700E
781E
7E7E
FFFF
47E2
ENDCHAR

STARTCHAR yen
ENCODING 165
SWIDTH 554 0
DWIDTH 18 0
BBX 17 25 1 0
BITMAP
C00180
E00380
E00380
600700
700700
300E00
380E00
381C00
1C1C00
1C3800
7C3F00
7E7F00
067000
07E000
03E000
7FFF00
7FFF00
018000
018000
018000
018000
018000
018000
018000
018000
ENDCHAR

STARTCHAR brokenbar
ENCODING 166
SWIDTH 672 0
DWIDTH 22 0
BBX 2 25 10 0
BITMAP
C0
C0
C0
C0
C0
C0
C0
C0
C0
C0
00
00
00
00
00
C0
C0
C0
C0
C0
C0
C0
C0
C0
C0
ENDCHAR

STARTCHAR section
ENCODING 167
SWIDTH 615 0
DWIDTH 20 0
BBX 15 29 2 -4
BITMAP
07E0
1FF0
1C78
3818
3018
3000
3800
3C00
1F00
3FC0
73F0
60F8
E03C
E00E
E006
7806
3E0E
1F8C
07FC
01F8
0078
001C
601C
600C
701C
381C
3C78
1FF0
07E0
ENDCHAR

STARTCHAR dieresis
ENCODING 168
SWIDTH 369 0
DWIDTH 12 0
BBX 6 4 3 21
BITMAP
CC
CC
CC
CC
ENDCHAR

STARTCHAR copyright
ENCODING 169
SWIDTH 747 0
DWIDTH 24 0
BBX 24 25 0 0
BITMAP
007E00
01FF80
0781E0
0E0070
180018
30000C
707E0E
60F386
41C182
C180C3
C30003
830001
830001
830001
C30003
C380C3
C180C3
60C186
607F06
301C0C
180018
0C0030
0700E0
03FFC0
007E00
ENDCHAR

STARTCHAR ordfeminine
ENCODING 170
SWIDTH 369 0
DWIDTH 12 0
BBX 10 14 1 11
BITMAP
3F40
73C0
C0C0
C0C0
8040
8040
C0C0
C0C0
73C0
3F40
0000
0000
0000
FFC0
ENDCHAR

STARTCHAR guillemotleft
ENCODING 171
SWIDTH 425 0
DWIDTH 14 0
BBX 11 13 1 4
BITMAP
1860
38E0
38C0
71C0
6180
E380
C300
E380
6180
71C0
38C0
38E0
1860
ENDCHAR

STARTCHAR logicalnot
ENCODING 172
SWIDTH 606 0
DWIDTH 20 0
BBX 16 9 1 6
BITMAP
FFFF
FFFF
FFFF
0003
0003
0003
0003
0003
0003
ENDCHAR

STARTCHAR hyphen
ENCODING 173
SWIDTH 332 0
DWIDTH 11 0
BBX 9 2 1 9
BITMAP
FF80
FF80
ENDCHAR

STARTCHAR registered
ENCODING 174
SWIDTH 747 0
DWIDTH 25 0
BBX 24 25 0 0
BITMAP
007C00
03FF80
0701E0
0C0070
180018
30000C
61FF06
618186
C180C3
C180C3
C180C3
818181
81FF01
818C01
818603
C18603
C18303
618386
618186
30000C
180018
1C0070
0701E0
03FF80
007E00
ENDCHAR

STARTCHAR macron
ENCODING 175
SWIDTH 485 0
DWIDTH 16 0
BBX 11 2 2 21
BITMAP
FFE0
FFE0
ENDCHAR

STARTCHAR degree
ENCODING 176
SWIDTH 400 0
DWIDTH 13 0
BBX 9 10 2 15
BITMAP
1C00
6300
4100
8080
8080
8080
8080
4100
6300
1C00
ENDCHAR

STARTCHAR plusminus
ENCODING 177
SWIDTH 606 0
DWIDTH 20 0
BBX 16 19 2 0
BITMAP
0180
0180
0180
0180
0180
0180
FFFF
FFFF
FFFF
0180
0180
0180
0180
0180
0000
0000
FFFF
FFFF
FFFF
ENDCHAR

STARTCHAR twosuperior
ENCODING 178
SWIDTH 332 0
DWIDTH 11 0
BBX 10 15 0 10
BITMAP
3F00
7380
61C0
C0C0
C0C0
00C0
0180
0380
0700
0E00
1C00
3800
7000
FFC0
FFC0
ENDCHAR

STARTCHAR threesuperior
ENCODING 179
SWIDTH 332 0
DWIDTH 11 0
BBX 10 15 0 10
BITMAP
1E00
3700
6180
6180
0180
0700
0E00
0380
0180
00C0
C0C0
C0C0
6180
7380
3F00
ENDCHAR

STARTCHAR acute
ENCODING 180
SWIDTH 375 0
DWIDTH 12 0
BBX 7 6 2 20
BITMAP
04
0E
3E
F8
E0
40
ENDCHAR

STARTCHAR mu
ENCODING 181
SWIDTH 608 0
DWIDTH 20 0
BBX 15 25 2 -6
BITMAP
C006
C006
C006
C006
C006
C006
C006
C006
C006
C006
C006
C006
E00E
E00E
E00E
F01E
FEFE
DFF6
CFE6
C000
C000
C000
C000
C000
C000
ENDCHAR

STARTCHAR paragraph
ENCODING 182
SWIDTH 564 0
DWIDTH 18 0
BBX 14 29 1 -4
BITMAP
0FFC
3FFC
7F0C
7F0C
FF0C
FF0C
FF0C
FF0C
FF0C
7F0C
7F0C
3F0C
0F0C
030C
030C
030C
030C
030C
030C
030C
030C
030C
030C
030C
030C
030C
030C
030C
030C
ENDCHAR

STARTCHAR periodcentered
ENCODING 183
SWIDTH 277 0
DWIDTH 9 0
BBX 2 4 3 8
BITMAP
C0
C0
C0
C0
ENDCHAR

STARTCHAR cedilla
ENCODING 184
SWIDTH 324 0
DWIDTH 11 0
BBX 5 7 3 -7
BITMAP
40
40
F0
18
08
D8
F0
ENDCHAR

STARTCHAR onesuperior
ENCODING 185
SWIDTH 332 0
DWIDTH 11 0
BBX 4 15 4 10
BITMAP
F0
30
30
30
30
30
30
30
30
30
30
30
30
30
30
ENDCHAR

STARTCHAR ordmasculine
ENCODING 186
SWIDTH 369 0
DWIDTH 12 0
BBX 9 14 1 11
BITMAP
3E00
7700
C180
C180
8080
8080
C180
C180
7700
3E00
0000
0000
0000
FF80
ENDCHAR

STARTCHAR guillemotright
ENCODING 187
SWIDTH 425 0
DWIDTH 14 0
BBX 11 13 1 4
BITMAP
C300
E380
6380
71C0
30C0
38E0
1860
38E0
31C0
71C0
6380
E380
C300
ENDCHAR

STARTCHAR onequarter
ENCODING 188
SWIDTH 831 0
DWIDTH 28 0
BBX 21 25 4 0
BITMAP
F00600
300600
300C00
300C00
301C00
301800
301800
303000
303000
307000
306070
306070
30C0F0
30C0B0
3181B0
018330
018230
030630
030C30
060830
061830
0E1FF8
0C0030
0C0030
080030
ENDCHAR

STARTCHAR onehalf
ENCODING 189
SWIDTH 831 0
DWIDTH 28 0
BBX 23 25 3 0
BITMAP
F00300
300600
300600
300E00
300C00
300C00
301800
301800
303000
303000
3071F8
30639C
30E30E
30C606
30C606
018006
01800C
03801C
030038
070070
0600E0
0601C0
0C0380
0C0700
1C07FE
ENDCHAR

STARTCHAR threequarters
ENCODING 190
SWIDTH 831 0
DWIDTH 28 0
BBX 25 25 0 0
BITMAP
1E006000
37006000
61806000
6180C000
0180C000
07018000
0E018000
03838000
01830000
00C30000
C0C60300
C0C60700
618C0F00
738C1B00
3F1C1B00
00183300
00186300
00306300
0030C300
00618300
00618300
00E1FF80
00C00300
00C00300
01800300
ENDCHAR

STARTCHAR questiondown
ENCODING 191
SWIDTH 591 0
DWIDTH 19 0
BBX 15 26 2 -7
BITMAP
0300
0300
0300
0300
0000
0000
0300
0300
0700
0700
0E00
1E00
1C00
3800
7000
E000
E000
C000
C006
C00E
E00E
E01E
703C
7CF8
3FF0
0FE0
ENDCHAR

STARTCHAR Agrave
ENCODING 192
SWIDTH 740 0
DWIDTH 24 0
BBX 21 27 1 0
BITMAP
01C000
01F000
007C00
001C00
000000
000000
007000
007000
00F800
00D800
018C00
038E00
030600
070700
060300
0E0380
0C0180
1FFFC0
1FFFC0
1800C0
3800E0
300060
700070
600030
E00038
E00038
C00018
ENDCHAR

STARTCHAR Aacute
ENCODING 193
SWIDTH 740 0
DWIDTH 24 0
BBX 21 27 1 0
BITMAP
000200
000700
001F00
007C00
007000
002000
007000
007000
00F800
00D800
018C00
038E00
030600
070700
060300
0E0380
0C0180
1FFFC0
1FFFC0
1800C0
3800E0
300060
700070
600030
E00038
E00038
C00018
ENDCHAR

STARTCHAR Acircumflex
ENCODING 194
SWIDTH 740 0
DWIDTH 24 0
BBX 21 27 1 0
BITMAP
007000
00F800
01DC00
038E00
000000
000000
007000
007000
00F800
00D800
018C00
038E00
030600
070700
060300
0E0380
0C0180
1FFFC0
1FFFC0
1800C0
3800E0
300060
700070
600030
E00038
E00038
C00018
ENDCHAR

STARTCHAR Atilde
ENCODING 195
SWIDTH 740 0
DWIDTH 24 0
BBX 21 26 1 0
BITMAP
01E400
03FE00
013C00
000000
000000
007000
007000
00F800
00D800
018C00
038E00
030600
070700
060300
0E0380
0C0180
1FFFC0
1FFFC0
1800C0
3800E0
300060
700070
600030
E00038
E00038
C00018
ENDCHAR

STARTCHAR Adieresis
ENCODING 196
SWIDTH 740 0
DWIDTH 24 0
BBX 21 27 1 0
BITMAP
019800
019800
019800
019800
000000
000000
007000
007000
00F800
00D800
018C00
038E00
030600
070700
060300
0E0380
0C0180
1FFFC0
1FFFC0
1800C0
3800E0
300060
700070
600030
E00038
E00038
C00018
ENDCHAR

STARTCHAR Aring
ENCODING 197
SWIDTH 740 0
DWIDTH 24 0
BBX 21 27 1 0
BITMAP
00F000
019800
010800
019800
00F000
000000
007000
007000
00F800
00D800
018C00
038E00
030600
070700
060300
0E0380
0C0180
1FFFC0
1FFFC0
1800C0
3800E0
300060
700070
600030
E00038
E00038
C00018
ENDCHAR

STARTCHAR AE
ENCODING 198
SWIDTH 992 0
DWIDTH 32 0
BBX 29 25 1 0
BITMAP
0000FFF8
0001FFF8
0003E000
0003E000
00076000
000E6000
000E6000
001C6000
00386000
00386000
00706000
00F06000
01E07FF8
01C07FF8
03C06000
07FFE000
07FFE000
0F006000
1E006000
1C006000
38006000
78006000
70006000
E0007FF8
E0007FF8
ENDCHAR

STARTCHAR Ccedilla
ENCODING 199
SWIDTH 813 0
DWIDTH 26 0
BBX 22 32 2 -7
BITMAP
00FF00
03FFC0
0FC3F0
1F0078
3C003C
38001C
70000C
700000
E00000
E00000
C00000
C00000
C00000
C00000
C00000
E00000
E00000
700000
70000C
38001C
3C003C
1F0078
0FC3F0
03FFC0
00FF00
004000
004000
00F000
001800
000800
00D800
00F000
ENDCHAR

STARTCHAR Egrave
ENCODING 200
SWIDTH 536 0
DWIDTH 17 0
BBX 12 27 3 0
BITMAP
3800
3E00
0F80
0380
0000
0000
FFF0
FFF0
C000
C000
C000
C000
C000
C000
C000
FFF0
FFF0
C000
C000
C000
C000
C000
C000
C000
C000
FFF0
FFF0
ENDCHAR

STARTCHAR Eacute
ENCODING 201
SWIDTH 536 0
DWIDTH 17 0
BBX 12 27 3 0
BITMAP
0080
01C0
07C0
1F00
1C00
0800
FFF0
FFF0
C000
C000
C000
C000
C000
C000
C000
FFF0
FFF0
C000
C000
C000
C000
C000
C000
C000
C000
FFF0
FFF0
ENDCHAR

STARTCHAR Ecircumflex
ENCODING 202
SWIDTH 536 0
DWIDTH 17 0
BBX 12 27 3 0
BITMAP
0E00
1F00
3B80
71C0
0000
0000
FFF0
FFF0
C000
C000
C000
C000
C000
C000
C000
FFF0
FFF0
C000
C000
C000
C000
C000
C000
C000
C000
FFF0
FFF0
ENDCHAR

STARTCHAR Edieresis
ENCODING 203
SWIDTH 536 0
DWIDTH 17 0
BBX 12 27 3 0
BITMAP
1980
1980
1980
1980
0000
0000
FFF0
FFF0
C000
C000
C000
C000
C000
C000
C000
FFF0
FFF0
C000
C000
C000
C000
C000
C000
C000
C000
FFF0
FFF0
ENDCHAR

STARTCHAR Igrave
ENCODING 204
SWIDTH 226 0
DWIDTH 7 0
BBX 7 27 1 0
BITMAP
E0
F8
3E
0E
00
00
30
30
30
30
30
30
30
30
30
30
30
30
30
30
30
30
30
30
30
30
30
ENDCHAR

STARTCHAR Iacute
ENCODING 205
SWIDTH 226 0
DWIDTH 7 0
BBX 7 27 3 0
BITMAP
04
0E
3E
F8
E0
40
C0
C0
C0
C0
C0
C0
C0
C0
C0
C0
C0
C0
C0
C0
C0
C0
C0
C0
C0
C0
C0
ENDCHAR

STARTCHAR Icircumflex
ENCODING 206
SWIDTH 226 0
DWIDTH 7 0
BBX 9 27 0 0
BITMAP
1C00
3E00
7700
E380
0000
0000
1800
1800
1800
1800
1800
1800
1800
1800
1800
1800
1800
1800
1800
1800
1800
1800
1800
1800
1800
1800
1800
ENDCHAR

STARTCHAR Idieresis
ENCODING 207
SWIDTH 226 0
DWIDTH 7 0
BBX 6 27 1 0
BITMAP
CC
CC
CC
CC
00
00
30
30
30
30
30
30
30
30
30
30
30
30
30
30
30
30
30
30
30
30
30
ENDCHAR

STARTCHAR Eth
ENCODING 208
SWIDTH 790 0
DWIDTH 26 0
BBX 23 25 1 0
BITMAP
1FFE00
1FFF80
180FC0
1801F0
180070
180038
18001C
18001C
18000C
18000E
18000E
FFC006
FFC006
180006
180006
18000E
18000E
18001C
18001C
180038
180078
1801F0
180FE0
1FFF80
1FFE00
ENDCHAR

STARTCHAR Ntilde
ENCODING 209
SWIDTH 740 0
DWIDTH 24 0
BBX 18 26 3 0
BITMAP
079000
0FF800
04F000
000000
000000
C000C0
E000C0
F000C0
F800C0
FC00C0
DE00C0
CE00C0
C700C0
C380C0
C3C0C0
C1E0C0
C0F0C0
C078C0
C03CC0
C01EC0
C00FC0
C007C0
C003C0
C001C0
C001C0
C000C0
ENDCHAR

STARTCHAR Ograve
ENCODING 210
SWIDTH 869 0
DWIDTH 28 0
BBX 24 27 2 0
BITMAP
00E000
00F800
003E00
000E00
000000
000000
00FF00
03FFC0
0FC3E0
1F00F8
1C0038
38001C
70000E
70000E
E00007
E00007
E00007
E00007
E00007
70000E
70000E
38001C
1C0038
1F0078
0FC3F0
03FFC0
00FF00
ENDCHAR

STARTCHAR Oacute
ENCODING 211
SWIDTH 869 0
DWIDTH 28 0
BBX 24 27 2 0
BITMAP
000080
0001C0
0007C0
001F00
001C00
000800
00FF00
03FFC0
0FC3E0
1F00F8
1C0038
38001C
70000E
70000E
E00007
E00007
E00007
E00007
E00007
70000E
70000E
38001C
1C0038
1F0078
0FC3F0
03FFC0
00FF00
ENDCHAR

STARTCHAR Ocircumflex
ENCODING 212
SWIDTH 869 0
DWIDTH 28 0
BBX 24 27 2 0
BITMAP
003800
007C00
00EE00
01C700
000000
000000
00FF00
03FFC0
0FC3E0
1F00F8
1C0038
38001C
70000E
70000E
E00007
E00007
E00007
E00007
E00007
70000E
70000E
38001C
1C0038
1F0078
0FC3F0
03FFC0
00FF00
ENDCHAR

STARTCHAR Otilde
ENCODING 213
SWIDTH 869 0
DWIDTH 28 0
BBX 24 26 2 0
BITMAP
00F200
01FF00
009E00
000000
000000
00FF00
03FFC0
0FC3E0
1F00F8
1C0038
38001C
70000E
70000E
E00007
E00007
E00007
E00007
E00007
70000E
70000E
38001C
1C0038
1F0078
0FC3F0
03FFC0
00FF00
ENDCHAR

STARTCHAR Odieresis
ENCODING 214
SWIDTH 869 0
DWIDTH 28 0
BBX 24 27 2 0
BITMAP
006600
006600
006600
006600
000000
000000
00FF00
03FFC0
0FC3E0
1F00F8
1C0038
38001C
70000E
70000E
E00007
E00007
E00007
E00007
E00007
70000E
70000E
38001C
1C0038
1F0078
0FC3F0
03FFC0
00FF00
ENDCHAR

STARTCHAR multiply
ENCODING 215
SWIDTH 606 0
DWIDTH 20 0
BBX 16 16 2 2
BITMAP
6006
F00F
781E
3C3C
1E78
0FF0
07E0
03C0
07E0
0FF0
1E78
3C3C
781E
F00F
E007
4002
ENDCHAR

STARTCHAR Oslash
ENCODING 216
SWIDTH 868 0
DWIDTH 28 0
BBX 24 29 2 -2
BITMAP
00000C
00000E
00FF1C
03FFF8
0FC3F0
1E0078
1C00F8
3801DC
7001CE
70038E
E00707
E00607
C00E03
C01C03
C03803
C03803
C07003
E0E007
E0C007
71C00E
73800E
3B001C
1F0038
1E00F8
1FC3E0
1FFFC0
38FF00
700000
700000
ENDCHAR

STARTCHAR Ugrave
ENCODING 217
SWIDTH 655 0
DWIDTH 21 0
BBX 15 27 3 0
BITMAP
0E00
0F80
03E0
00E0
0000
0000
C006
C006
C006
C006
C006
C006
C006
C006
C006
C006
C006
C006
C006
C006
E00E
E00E
600C
701C
3EF8
1FF0
0FE0
ENDCHAR

STARTCHAR Uacute
ENCODING 218
SWIDTH 655 0
DWIDTH 21 0
BBX 15 27 3 0
BITMAP
0040
00E0
03E0
0F80
0E00
0400
C006
C006
C006
C006
C006
C006
C006
C006
C006
C006
C006
C006
C006
C006
E00E
E00E
600C
701C
3EF8
1FF0
0FE0
ENDCHAR

STARTCHAR Ucircumflex
ENCODING 219
SWIDTH 655 0
DWIDTH 21 0
BBX 15 27 3 0
BITMAP
0380
07C0
0EE0
1C70
0000
0000
C006
C006
C006
C006
C006
C006
C006
C006
C006
C006
C006
C006
C006
C006
E00E
E00E
600C
701C
3EF8
1FF0
0FE0
ENDCHAR

STARTCHAR Udieresis
ENCODING 220
SWIDTH 655 0
DWIDTH 21 0
BBX 15 27 3 0
BITMAP
0CC0
0CC0
0CC0
0CC0
0000
0000
C006
C006
C006
C006
C006
C006
C006
C006
C006
C006
C006
C006
C006
C006
E00E
E00E
600C
701C
3EF8
1FF0
0FE0
ENDCHAR

STARTCHAR Yacute
ENCODING 221
SWIDTH 592 0
DWIDTH 19 0
BBX 17 27 1 0
BITMAP
001000
003800
00F800
03E000
038000
010000
C00180
E00380
E00700
700600
380E00
181C00
1C3800
0E7000
066000
07E000
03C000
03C000
018000
018000
018000
018000
018000
018000
018000
018000
018000
ENDCHAR

STARTCHAR Thorn
ENCODING 222
SWIDTH 592 0
DWIDTH 19 0
BBX 15 25 3 0
BITMAP
C000
C000
C000
C000
C000
FFE0
FFF8
C07C
C01C
C00E
C00E
C006
C006
C006
C00E
C00E
C01C
C07C
FFF8
FFE0
C000
C000
C000
C000
C000
ENDCHAR

STARTCHAR germandbls
ENCODING 223
SWIDTH 554 0
DWIDTH 18 0
BBX 15 25 2 0
BITMAP
0F80
3FE0
79F0
7070
E038
E038
C018
C018
C038
C038
C070
C1F0
C7E0
C7F8
C07C
C01C
C00E
C00E
F00E
F00E
F00E
F81C
DC3C
DFF8
C7E0
ENDCHAR

STARTCHAR agrave
ENCODING 224
SWIDTH 683 0
DWIDTH 22 0
BBX 18 25 2 0
BITMAP
070000
07C000
01F000
007000
000000
000000
03F0C0
0FFCC0
1E1EC0
3807C0
7003C0
7001C0
E001C0
E001C0
C000C0
C000C0
C000C0
E001C0
E001C0
F001C0
7003C0
7807C0
1E1EC0
0FFCC0
03F0C0
ENDCHAR

STARTCHAR aacute
ENCODING 225
SWIDTH 683 0
DWIDTH 22 0
BBX 18 26 2 0
BITMAP
002000
007000
01F000
07C000
070000
020000
000000
03F0C0
0FFCC0
1E1EC0
3807C0
7003C0
7001C0
E001C0
E001C0
C000C0
C000C0
C000C0
E001C0
E001C0
F001C0
7003C0
7807C0
1E1EC0
0FFCC0
03F0C0
ENDCHAR

STARTCHAR acircumflex
ENCODING 226
SWIDTH 683 0
DWIDTH 22 0
BBX 18 25 2 0
BITMAP
01C000
03E000
077000
0E3800
000000
000000
03F0C0
0FFCC0
1E1EC0
3807C0
7003C0
7001C0
E001C0
E001C0
C000C0
C000C0
C000C0
E001C0
E001C0
F001C0
7003C0
7807C0
1E1EC0
0FFCC0
03F0C0
ENDCHAR

STARTCHAR atilde
ENCODING 227
SWIDTH 683 0
DWIDTH 22 0
BBX 18 24 2 0
BITMAP
079000
0FF800
04F000
000000
000000
03F0C0
0FFCC0
1E1EC0
3807C0
7003C0
7001C0
E001C0
E001C0
C000C0
C000C0
C000C0
E001C0
E001C0
F001C0
7003C0
7807C0
1E1EC0
0FFCC0
03F0C0
ENDCHAR

STARTCHAR adieresis
ENCODING 228
SWIDTH 683 0
DWIDTH 22 0
BBX 18 25 2 0
BITMAP
033000
033000
033000
033000
000000
000000
03F0C0
0FFCC0
1E1EC0
3807C0
7003C0
7001C0
E001C0
E001C0
C000C0
C000C0
C000C0
E001C0
E001C0
F001C0
7003C0
7807C0
1E1EC0
0FFCC0
03F0C0
ENDCHAR

STARTCHAR aring
ENCODING 229
SWIDTH 683 0
DWIDTH 22 0
BBX 18 26 2 0
BITMAP
01E000
033000
021000
033000
01E000
000000
000000
03F0C0
0FFCC0
1E1EC0
3807C0
7003C0
7001C0
E001C0
E001C0
C000C0
C000C0
C000C0
E001C0
E001C0
F001C0
7003C0
7807C0
1E1EC0
0FFCC0
03F0C0
ENDCHAR

STARTCHAR ae
ENCODING 230
SWIDTH 1157 0
DWIDTH 37 0
BBX 33 19 2 0
BITMAP
07F8C7F000
0FFCCFF800
1F7EDF7C00
3C0FF80E00
7003F00700
7003F00700
E001E00380
E001E00380
E000C00180
C000FFFF80
C000FFFF80
C000C00000
E001E00000
E001E00300
7003F00700
3807F80F00
3E1FFE3E00
0FFCCFFC00
07F8C7F000
ENDCHAR

STARTCHAR ccedilla
ENCODING 231
SWIDTH 647 0
DWIDTH 21 0
BBX 17 26 2 -7
BITMAP
03F800
0FFE00
1F1F00
3C0780
700380
700180
E00000
E00000
C00000
C00000
C00000
E00000
E00000
700180
700380
3C0780
1F1F00
0FFE00
03F800
010000
010000
03C000
006000
002000
036000
03C000
ENDCHAR

STARTCHAR egrave
ENCODING 232
SWIDTH 650 0
DWIDTH 21 0
BBX 17 25 2 0
BITMAP
070000
07C000
01F000
007000
000000
000000
07F000
0FF800
1F7C00
380E00
700700
700700
E00380
E00380
C00180
FFFF80
FFFF80
C00000
E00000
E00300
700700
780F00
3E3E00
1FFC00
07F000
ENDCHAR

STARTCHAR eacute
ENCODING 233
SWIDTH 650 0
DWIDTH 21 0
BBX 17 26 2 0
BITMAP
002000
007000
01F000
07C000
070000
020000
000000
07F000
0FF800
1F7C00
380E00
700700
700700
E00380
E00380
C00180
FFFF80
FFFF80
C00000
E00000
E00300
700700
780F00
3E3E00
1FFC00
07F000
ENDCHAR

STARTCHAR ecircumflex
ENCODING 234
SWIDTH 650 0
DWIDTH 21 0
BBX 17 25 2 0
BITMAP
01C000
03E000
077000
0E3800
000000
000000
07F000
0FF800
1F7C00
380E00
700700
700700
E00380
E00380
C00180
FFFF80
FFFF80
C00000
E00000
E00300
700700
780F00
3E3E00
1FFC00
07F000
ENDCHAR

STARTCHAR edieresis
ENCODING 235
SWIDTH 650 0
DWIDTH 21 0
BBX 17 25 2 0
BITMAP
066000
066000
066000
066000
000000
000000
07F000
0FF800
1F7C00
380E00
700700
700700
E00380
E00380
C00180
FFFF80
FFFF80
C00000
E00000
E00300
700700
780F00
3E3E00
1FFC00
07F000
ENDCHAR

STARTCHAR igrave
ENCODING 236
SWIDTH 200 0
DWIDTH 7 0
BBX 7 25 0 0
BITMAP
E0
F8
3E
0E
00
00
30
30
30
30
30
30
30
30
30
30
30
30
30
30
30
30
30
30
30
ENDCHAR

STARTCHAR iacute
ENCODING 237
SWIDTH 200 0
DWIDTH 7 0
BBX 7 26 0 0
BITMAP
04
0E
3E
F8
E0
40
00
30
30
30
30
30
30
30
30
30
30
30
30
30
30
30
30
30
30
30
ENDCHAR

STARTCHAR icircumflex
ENCODING 238
SWIDTH 200 0
DWIDTH 7 0
BBX 9 25 -1 0
BITMAP
1C00
3E00
7700
E380
0000
0000
1800
1800
1800
1800
1800
1800
1800
1800
1800
1800
1800
1800
1800
1800
1800
1800
1800
1800
1800
ENDCHAR

STARTCHAR idieresis
ENCODING 239
SWIDTH 200 0
DWIDTH 7 0
BBX 6 25 0 0
BITMAP
CC
CC
CC
CC
00
00
30
30
30
30
30
30
30
30
30
30
30
30
30
30
30
30
30
30
30
ENDCHAR

STARTCHAR eth
ENCODING 240
SWIDTH 655 0
DWIDTH 22 0
BBX 17 25 2 0
BITMAP
1E3C00
03F000
07E000
0E7000
003800
001C00
07FE00
0FFE00
3F7F00
380F00
700780
600380
E00380
E00380
C00180
C00180
C00180
E00380
E00380
E00300
700700
380E00
3F7E00
0FFC00
07F000
ENDCHAR

STARTCHAR ntilde
ENCODING 241
SWIDTH 610 0
DWIDTH 20 0
BBX 15 24 2 0
BITMAP
0F20
1FF0
09E0
0000
0000
C7C0
DFF0
FC78
F01C
E00C
E00E
C00E
C006
C006
C006
C006
C006
C006
C006
C006
C006
C006
C006
C006
ENDCHAR

STARTCHAR ograve
ENCODING 242
SWIDTH 655 0
DWIDTH 21 0
BBX 17 25 2 0
BITMAP
070000
07C000
01F000
007000
000000
000000
07F000
0FF800
3F7E00
380E00
700700
600300
E00380
E00380
C00180
C00180
C00180
E00380
E00380
E00300
700700
380E00
3F7E00
0FF800
07F000
ENDCHAR

STARTCHAR oacute
ENCODING 243
SWIDTH 655 0
DWIDTH 21 0
BBX 17 26 2 0
BITMAP
002000
007000
01F000
07C000
070000
020000
000000
07F000
0FF800
3F7E00
380E00
700700
600300
E00380
E00380
C00180
C00180
C00180
E00380
E00380
E00300
700700
380E00
3F7E00
0FF800
07F000
ENDCHAR

STARTCHAR ocircumflex
ENCODING 244
SWIDTH 655 0
DWIDTH 21 0
BBX 17 25 2 0
BITMAP
01C000
03E000
077000
0E3800
000000
000000
07F000
0FF800
3F7E00
380E00
700700
600300
E00380
E00380
C00180
C00180
C00180
E00380
E00380
E00300
700700
380E00
3F7E00
0FF800
07F000
ENDCHAR

STARTCHAR otilde
ENCODING 245
SWIDTH 655 0
DWIDTH 21 0
BBX 17 24 2 0
BITMAP
079000
0FF800
04F000
000000
000000
07F000
0FF800
3F7E00
380E00
700700
600300
E00380
E00380
C00180
C00180
C00180
E00380
E00380
E00300
700700
380E00
3F7E00
0FF800
07F000
ENDCHAR

STARTCHAR odieresis
ENCODING 246
SWIDTH 655 0
DWIDTH 21 0
BBX 17 25 2 0
BITMAP
066000
066000
066000
066000
000000
000000
07F000
0FF800
3F7E00
380E00
700700
600300
E00380
E00380
C00180
C00180
C00180
E00380
E00380
E00300
700700
380E00
3F7E00
0FF800
07F000
ENDCHAR

STARTCHAR divide
ENCODING 247
SWIDTH 606 0
DWIDTH 20 0
BBX 16 17 2 2
BITMAP
0180
0180
0180
0000
0000
0000
0000
FFFF
FFFF
FFFF
0000
0000
0000
0000
0180
0180
0180
ENDCHAR

STARTCHAR oslash
ENCODING 248
SWIDTH 653 0
DWIDTH 21 0
BBX 17 21 2 -1
BITMAP
000300
07F700
0FFE00
3F3E00
381E00
701F00
603B00
E07380
E06180
C0E180
C1C180
C18180
E38380
E70380
6E0300
7E0700
3C0E00
3E7E00
3FF800
77F000
600000
ENDCHAR

STARTCHAR ugrave
ENCODING 249
SWIDTH 608 0
DWIDTH 20 0
BBX 15 25 2 0
BITMAP
0E00
0F80
03E0
00E0
0000
0000
C006
C006
C006
C006
C006
C006
C006
C006
C006
C006
C006
C006
C00E
E00E
E00E
701E
7C7E
3FF6
0FC6
ENDCHAR

STARTCHAR uacute
ENCODING 250
SWIDTH 608 0
DWIDTH 20 0
BBX 15 26 2 0
BITMAP
0040
00E0
03E0
0F80
0E00
0400
0000
C006
C006
C006
C006
C006
C006
C006
C006
C006
C006
C006
C006
C00E
E00E
E00E
701E
7C7E
3FF6
0FC6
ENDCHAR

STARTCHAR ucircumflex
ENCODING 251
SWIDTH 608 0
DWIDTH 20 0
BBX 15 25 2 0
BITMAP
0380
07C0
0EE0
1C70
0000
0000
C006
C006
C006
C006
C006
C006
C006
C006
C006
C006
C006
C006
C00E
E00E
E00E
701E
7C7E
3FF6
0FC6
ENDCHAR

STARTCHAR udieresis
ENCODING 252
SWIDTH 608 0
DWIDTH 20 0
BBX 15 25 2 0
BITMAP
0CC0
0CC0
0CC0
0CC0
0000
0000
C006
C006
C006
C006
C006
C006
C006
C006
C006
C006
C006
C006
C00E
E00E
E00E
701E
7C7E
3FF6
0FC6
ENDCHAR

STARTCHAR yacute
ENCODING 253
SWIDTH 536 0
DWIDTH 18 0
BBX 16 32 0 -6
BITMAP
0020
0070
01F0
07C0
0700
0200
0000
E003
6007
7007
7006
300E
380E
381C
181C
1C18
0C38
0E30
0E70
0670
07E0
07E0
03C0
03C0
03C0
0380
0380
0300
0700
0600
0E00
0E00
ENDCHAR

STARTCHAR thorn
ENCODING 254
SWIDTH 682 0
DWIDTH 23 0
BBX 18 31 2 -6
BITMAP
C00000
C00000
C00000
C00000
C00000
C00000
C3F000
CFFC00
DF3E00
F80F00
F00380
E00380
E001C0
E001C0
C000C0
C000C0
C000C0
C001C0
E001C0
E00380
F00380
F80F00
DF3E00
CFFC00
C7F800
C00000
C00000
C00000
C00000
C00000
C00000
ENDCHAR

STARTCHAR ydieresis
ENCODING 255
SWIDTH 536 0
DWIDTH 17 0
BBX 16 31 0 -6
BITMAP
0660
0660
0660
0660
0000
0000
E003
6007
7007
7006
300E
380E
381C
181C
1C18
0C38
0E30
0E70
0670
07E0
07E0
03C0
03C0
03C0
0380
0380
0300
0700
0600
0E00
0E00
ENDCHAR
ENDFONT
